<?xml version="1.0" encoding="utf-8"?>
<!-- Generated by IcoMoon.io -->
<!DOCTYPE svg PUBLIC "-//W3C//DTD SVG 1.1//EN" "http://www.w3.org/Graphics/SVG/1.1/DTD/svg11.dtd">
<svg version="1.1" xmlns="http://www.w3.org/2000/svg" xmlns:xlink="http://www.w3.org/1999/xlink" width="32" height="32" viewBox="0 0 32 32">
<g id="icomoon-ignore">
	<line stroke-width="1" x1="0" y1="1008" x2="1024" y2="1008" stroke="#449FDB" opacity="0.3"></line>
</g>
	<path d="M19.621 20.109c0 0 11.294-8.149 10.042-17.477-0.029-0.205-0.096-0.339-0.179-0.43-0.088-0.085-0.219-0.155-0.421-0.184-9.115-1.278-17.078 10.278-17.078 10.278-6.909-0.829-6.406 0.55-9.558 8.12-0.603 1.443 0.374 1.941 1.446 1.534 1.072-0.403 3.438-1.298 3.438-1.298l4.142 4.238c0 0-0.874 2.421-1.269 3.517-0.395 1.099 0.090 2.099 1.501 1.483 7.398-3.227 8.746-2.714 7.936-9.782zM21.234 10.643c-0.957-0.979-0.957-2.566 0-3.546 0.957-0.978 2.507-0.978 3.464 0 0.958 0.978 0.958 2.566 0 3.546-0.955 0.981-2.507 0.981-3.464 0z" fill="#000000"></path>
</svg>
