<?xml version="1.0" encoding="utf-8"?>

<!-- License Agreement at http://iconmonstr.com/license/ -->

<!DOCTYPE svg PUBLIC "-//W3C//DTD SVG 1.1//EN" "http://www.w3.org/Graphics/SVG/1.1/DTD/svg11.dtd">
<svg version="1.1" xmlns="http://www.w3.org/2000/svg" xmlns:xlink="http://www.w3.org/1999/xlink" x="0px" y="0px"
	 width="512px" height="512px" viewBox="0 0 512 512" enable-background="new 0 0 512 512" xml:space="preserve">
<path id="checkbox-12-icon" d="M413.899,190.091C421.71,210.566,426,232.78,426,256c0,102.172-82.828,185-185,185
	c-102.173,0-185-82.828-185-185S138.827,71,241,71c43.287,0,83.099,14.872,114.614,39.778
	c-11.052,8.416-21.646,16.996-32.065,25.976C299.48,120.018,270.935,111,241,111c-38.73,0-75.144,15.083-102.53,42.47
	S96,217.27,96,256s15.083,75.144,42.47,102.53S202.27,401,241,401s75.144-15.083,102.53-42.47S386,294.73,386,256
	c0-9.341-0.886-18.544-2.602-27.521C393.555,214.745,403.652,202.041,413.899,190.091z M265.044,361.228
	C337.303,231.646,387.484,165.049,456,105.257l-8.906-20.485c-83.084,51.692-127.781,90.637-195.425,167.402
	c-35.982-25.648-56.288-37.436-88.301-52.927L136,224.549C190.735,275.283,220.479,308.739,265.044,361.228z" fill="yellowgreen"/>
</svg>
