<?xml version="1.0" ?><!DOCTYPE svg  PUBLIC '-//W3C//DTD SVG 1.1//EN'  'http://www.w3.org/Graphics/SVG/1.1/DTD/svg11.dtd'><svg enable-background="new 0 0 48 48" height="48px" version="1.1" viewBox="0 0 48 48" width="48px" xml:space="preserve" xmlns="http://www.w3.org/2000/svg" xmlns:xlink="http://www.w3.org/1999/xlink"><g id="Expanded"><g><g><path d="M18,48C9.178,48,2,40.822,2,32c0-6.906,4.486-13.043,11-15.186V14c0-0.552,0.448-1,1-1h8c0.552,0,1,0.448,1,1v2.814     c6.514,2.143,11,8.28,11,15.186C34,40.822,26.823,48,18,48z M15,15v2.556c0,0.45-0.3,0.844-0.733,0.964     C8.222,20.191,4,25.734,4,32c0,7.72,6.28,14,14,14s14-6.28,14-14c0-6.266-4.222-11.809-10.267-13.48     C21.301,18.399,21,18.005,21,17.556V15H15z" fill="black"/></g><g><path d="M32,16c-2.757,0-5-2.243-5-5c0-2.206-1.794-4-4-4s-4,1.794-4,4v3c0,0.552-0.448,1-1,1s-1-0.448-1-1v-3     c0-3.309,2.691-6,6-6s6,2.691,6,6c0,1.654,1.346,3,3,3s3-1.346,3-3s1.346-3,3-3c0.552,0,1,0.448,1,1s-0.448,1-1,1     c-0.551,0-1,0.449-1,1C37,13.757,34.757,16,32,16z" fill="#9b7b14"/></g><g><path d="M38,6c-0.552,0-1-0.448-1-1V1c0-0.552,0.448-1,1-1s1,0.448,1,1v4C39,5.552,38.553,6,38,6z" fill="#ff0000"/></g><g><path d="M40.829,7.172c-0.256,0-0.512-0.098-0.707-0.293c-0.391-0.39-0.391-1.023,0-1.414l2.828-2.829     c0.39-0.391,1.023-0.391,1.414,0c0.391,0.39,0.391,1.023,0,1.414l-2.828,2.829C41.341,7.074,41.084,7.172,40.829,7.172z" fill="#ff3300"/></g><g><path d="M35.172,7.172c-0.256,0-0.512-0.098-0.707-0.293L31.637,4.05c-0.391-0.391-0.391-1.024,0-1.414     c0.391-0.391,1.023-0.391,1.414,0l2.828,2.829c0.391,0.391,0.391,1.024,0,1.414C35.684,7.074,35.428,7.172,35.172,7.172z" fill="#ff6600"/></g><g><path d="M46,10h-4c-0.552,0-1-0.448-1-1s0.448-1,1-1h4c0.552,0,1,0.448,1,1S46.552,10,46,10z" fill="#ff9900"/></g><g><path d="M43.657,15.655c-0.256,0-0.512-0.098-0.707-0.292l-2.83-2.827c-0.391-0.391-0.391-1.023,0-1.415     c0.391-0.391,1.024-0.39,1.415,0l2.83,2.827c0.391,0.391,0.391,1.023,0,1.415C44.169,15.558,43.913,15.655,43.657,15.655z" fill="#ffdd00"/></g><g><path d="M8.978,39.29c-0.316,0-0.627-0.149-0.821-0.428c-1.833-2.63-2.532-5.816-1.968-8.971     c0.563-3.156,2.322-5.903,4.952-7.735c0.454-0.315,1.076-0.204,1.392,0.249c0.316,0.453,0.205,1.077-0.249,1.392     c-4.524,3.153-5.639,9.398-2.486,13.922c0.316,0.453,0.205,1.077-0.249,1.392C9.374,39.232,9.175,39.29,8.978,39.29z" fill="#ffffff"/></g></g></g></svg>