<?xml version="1.0" encoding="utf-8"?>

<!-- License Agreement at http://iconmonstr.com/license/ -->

<!DOCTYPE svg PUBLIC "-//W3C//DTD SVG 1.1//EN" "http://www.w3.org/Graphics/SVG/1.1/DTD/svg11.dtd">
<svg version="1.1" xmlns="http://www.w3.org/2000/svg" xmlns:xlink="http://www.w3.org/1999/xlink" x="0px" y="0px"
	 width="512px" height="512px" viewBox="0 0 512 512" enable-background="new 0 0 512 512" xml:space="preserve">
<path id="power-on-4-icon" d="M465.562,175.568c25.053,59.078,21.319,127.057-11.247,183.463
	C417.503,422.793,349.47,462.07,275.845,462.07S134.187,422.793,97.374,359.031c-18.283-31.67-27.477-66.988-27.598-102.329H30.089
	l60.324-83.71l60.082,83.71h-40.682c0.121,28.429,7.527,56.835,22.234,82.31c29.66,51.373,84.475,83.02,143.797,83.02
	c59.32,0,114.135-31.646,143.797-83.02c26.02-45.068,29.208-99.308,9.575-146.628L465.562,175.568z M421.267,109.966l-26.134,30.551
	c7.439,7.686,14.18,16.137,20.097,25.284l36.645-16.954C443.166,134.536,432.865,121.515,421.267,109.966z M327.729,56.551
	c-16.025-4.169-32.676-6.438-49.639-6.621v40.057c12.381,0.167,24.554,1.696,36.328,4.51L327.729,56.551z M248.09,51.8
	c-19,2.58-37.377,7.777-54.662,15.322l24.611,33.225c9.687-3.6,19.742-6.309,30.051-8.055V51.8z M190.497,113.566l-23.918-32.289
	c-13.155,8.227-25.401,17.935-36.459,28.99l28.312,28.312C168.092,128.921,178.871,120.532,190.497,113.566z M398.522,90.403
	c-13.117-9.716-27.351-17.84-42.388-24.203l-13.29,37.888c10.405,4.591,20.322,10.222,29.572,16.833L398.522,90.403z
	 M310.845,163.991h-70V347.99h70V163.991z"/>
</svg>
