<?xml version="1.0" encoding="utf-8"?>
<!-- Generated by IcoMoon.io -->
<!DOCTYPE svg PUBLIC "-//W3C//DTD SVG 1.1//EN" "http://www.w3.org/Graphics/SVG/1.1/DTD/svg11.dtd">
<svg version="1.1" xmlns="http://www.w3.org/2000/svg" xmlns:xlink="http://www.w3.org/1999/xlink" width="32" height="32" viewBox="0 0 32 32">
<g id="icomoon-ignore">
	<line stroke-width="1" x1="" y1="" x2="" y2="" stroke="#449FDB" opacity=""></line>
</g>
	<path d="M16 19.326c3.824 0 7.026-1.299 7.219-2.997-0.568-1.595-1.189-3.334-1.798-5.045-0.422 1.219-2.76 2.080-5.421 2.080s-4.997-0.859-5.422-2.078c-0.61 1.71-1.227 3.448-1.797 5.045 0.194 1.696 3.394 2.995 7.219 2.995zM16 8.598c1.797 0 3.467-0.557 3.957-1.421-0.674-1.893-1.253-3.515-1.619-4.539-0.242-0.683-1.344-1.038-2.338-1.038s-2.096 0.355-2.338 1.037c-0.366 1.024-0.944 2.648-1.619 4.539 0.49 0.866 2.16 1.422 3.957 1.422zM30.048 20.906l-6.008-2.421 0.693 1.931c-0.035 2.045-4.008 3.677-8.733 3.677s-8.698-1.632-8.731-3.677l0.691-1.931-6.008 2.421c-1.685 0.68-1.755 1.936-0.158 2.792l11.299 6.059c1.598 0.856 4.214 0.856 5.813 0l11.299-6.059c1.6-0.856 1.528-2.112-0.157-2.792z" fill="#ff7700"></path>
</svg>
