<?xml version="1.0" encoding="utf-8"?>
<!-- Generated by IcoMoon.io -->
<!DOCTYPE svg PUBLIC "-//W3C//DTD SVG 1.1//EN" "http://www.w3.org/Graphics/SVG/1.1/DTD/svg11.dtd">
<svg version="1.1" xmlns="http://www.w3.org/2000/svg" xmlns:xlink="http://www.w3.org/1999/xlink" width="32" height="32" viewBox="0 0 32 32">
<g id="icomoon-ignore">
	<line stroke-width="1" x1="" y1="" x2="" y2="" stroke="#449FDB" opacity=""></line>
</g>
	<path d="M8.826 22.758c-3.619-3.893-3.555-9.992 0.203-13.778 1.539-1.549 3.462-2.474 5.462-2.778l-0.11-3.323c-2.806 0.341-5.523 1.594-7.675 3.76-5.038 5.075-5.098 13.264-0.197 18.451l-2.786 2.805 8.816 0.482-0.024-9.334-3.69 3.715zM19.459 3.624l0.024 9.334 3.691-3.717c3.619 3.893 3.557 9.992-0.203 13.778-1.539 1.55-3.462 2.474-5.464 2.778l0.11 3.322c2.808-0.341 5.525-1.594 7.677-3.762 5.037-5.074 5.099-13.264 0.195-18.45l2.786-2.805-8.816-0.478z" fill="#000000"></path>
</svg>
