<?xml version="1.0" encoding="utf-8"?>
<!-- Generated by IcoMoon.io -->
<!DOCTYPE svg PUBLIC "-//W3C//DTD SVG 1.1//EN" "http://www.w3.org/Graphics/SVG/1.1/DTD/svg11.dtd">
<svg version="1.1" xmlns="http://www.w3.org/2000/svg" xmlns:xlink="http://www.w3.org/1999/xlink" width="32" height="32" viewBox="0 0 32 32">
<g id="icomoon-ignore">
	<line stroke-width="1" x1="" y1="" x2="" y2="" stroke="#449FDB" opacity=""></line>
</g>
	<path d="M6.328 0.149c-0.024-0.198-0.352-0.198-0.374 0-0.818 6.584-4.994 7.941-4.994 12.517 0 2.827 2.371 5.118 5.181 5.118s5.181-2.291 5.181-5.118c0-4.576-4.176-5.933-4.994-12.517z"  fill="#ff0000"></path>
	<path d="M26.046 0.149c-0.026-0.198-0.35-0.198-0.374 0-0.818 6.584-4.994 7.941-4.994 12.517 0 2.827 2.371 5.118 5.181 5.118s5.181-2.291 5.181-5.118c0-4.576-4.176-5.933-4.994-12.517z" fill="#00ff00"></path>
	<path d="M15.813 14.365c-0.818 6.584-4.994 7.939-4.994 12.515 0 2.829 2.371 5.12 5.181 5.12s5.181-2.293 5.181-5.12c0-4.574-4.176-5.931-4.994-12.515-0.024-0.2-0.35-0.2-0.374 0z" fill="#0000ff"></path>
</svg>
