<?xml version="1.0" encoding="utf-8"?>
<!-- Generated by IcoMoon.io -->
<!DOCTYPE svg PUBLIC "-//W3C//DTD SVG 1.1//EN" "http://www.w3.org/Graphics/SVG/1.1/DTD/svg11.dtd">
<svg version="1.1" xmlns="http://www.w3.org/2000/svg" xmlns:xlink="http://www.w3.org/1999/xlink" width="32" height="32" viewBox="0 0 32 32">
<g id="icomoon-ignore">
	<line stroke-width="1" x1="" y1="" x2="" y2="" stroke="#449FDB" opacity=""></line>
</g>
	<path d="M29.76 6.4h-27.52c-1.232 0-2.24 1.008-2.24 2.24v14.722c0 1.23 1.008 2.238 2.24 2.238h27.52c1.234 0 2.24-1.008 2.24-2.238v-14.722c0-1.232-1.008-2.24-2.24-2.24zM17.6 9.6h3.2v3.2h-3.2v-3.2zM22.4 14.4v3.2h-3.2v-3.2h3.2zM12.8 9.6h3.2v3.2h-3.2v-3.2zM17.6 14.4v3.2h-3.2v-3.2h3.2zM8 9.6h3.2v3.2h-3.2v-3.2zM12.8 14.4v3.2h-3.2v-3.2h3.2zM3.2 9.6h3.2v3.2h-3.2v-3.2zM8 14.4v3.2h-3.2v-3.2h3.2zM6.4 22.4h-3.2v-3.2h3.2v3.2zM24 22.4h-16v-3.2h16v3.2zM28.8 22.4h-3.2v-3.2h3.2v3.2zM24 17.6v-3.2h3.2v3.2h-3.2zM28.8 12.8h-6.4v-3.2h6.4v3.2z" fill="#000000"></path>
</svg>
