<?xml version="1.0" encoding="utf-8"?>
<!-- Generated by IcoMoon.io -->
<!DOCTYPE svg PUBLIC "-//W3C//DTD SVG 1.1//EN" "http://www.w3.org/Graphics/SVG/1.1/DTD/svg11.dtd">
<svg version="1.1" xmlns="http://www.w3.org/2000/svg" xmlns:xlink="http://www.w3.org/1999/xlink" width="32" height="32" viewBox="0 0 32 32">
<g id="icomoon-ignore">
	<line stroke-width="1" x1="" y1="" x2="" y2="" stroke="#449FDB" opacity=""></line>
</g>
	<path d="M24.643 23.045l-4.202-12.058c-1.157-3.318-4.747-5.152-8.149-4.246l-3.162-6.134c-0.286-0.555-0.957-0.768-1.499-0.475-0.542 0.294-0.75 0.982-0.464 1.538l3.086 5.989c-2.459 1.632-3.738 4.725-2.928 7.637l3.424 12.314c0.963 3.461 4.928 5.224 8.914 4.005 3.934-1.381 6.162-5.179 4.979-8.568zM14.238 14.277c-1.166 0.382-2.418-0.275-2.792-1.474-0.374-1.197 0.269-2.478 1.437-2.861 1.168-0.384 2.419 0.275 2.794 1.472s-0.269 2.478-1.438 2.862z" fill="#000000"></path>
</svg>
