<?xml version="1.0" encoding="utf-8"?>

<!-- License Agreement at http://iconmonstr.com/license/ -->

<!DOCTYPE svg PUBLIC "-//W3C//DTD SVG 1.1//EN" "http://www.w3.org/Graphics/SVG/1.1/DTD/svg11.dtd">
<svg version="1.1" xmlns="http://www.w3.org/2000/svg" xmlns:xlink="http://www.w3.org/1999/xlink" x="0px" y="0px"
	 width="512px" height="512px" viewBox="0 0 512 512" enable-background="new 0 0 512 512" xml:space="preserve">
<path id="rocket-icon" d="M280.5,444h-49l-16.75-29.209h82.5L280.5,444z M406,462c18.334-57-1.25-120.5-32.833-147.333
	C368.334,340,355.25,378,346,395.791C385.25,404.75,401.334,429,406,462z M166,395.791C156.75,378,143.666,340,138.833,314.667
	C107.25,341.5,87.666,405,106,462C110.666,429,126.75,404.75,166,395.791z M314.389,394.945H197.722
	C152.61,305.319,132.253,155.698,255.751,50C380.11,155,359.598,300.82,314.389,394.945z M278.2,277.14
	c0-12.261-9.939-22.2-22.2-22.2s-22.2,9.939-22.2,22.2s9.939,22.2,22.2,22.2S278.2,289.4,278.2,277.14z M292.629,190.473
	c0-20.231-16.399-36.63-36.629-36.63c-20.231,0-36.63,16.399-36.63,36.63c0,20.229,16.399,36.63,36.63,36.63
	C276.229,227.103,292.629,210.702,292.629,190.473z"/>
</svg>
