<?xml version="1.0" encoding="utf-8"?>
<!-- Generated by IcoMoon.io -->
<!DOCTYPE svg PUBLIC "-//W3C//DTD SVG 1.1//EN" "http://www.w3.org/Graphics/SVG/1.1/DTD/svg11.dtd">
<svg version="1.1" xmlns="http://www.w3.org/2000/svg" xmlns:xlink="http://www.w3.org/1999/xlink" width="32" height="32" viewBox="0 0 32 32">
<g id="icomoon-ignore">
	<line stroke-width="1" x1="" y1="" x2="" y2="" stroke="#449FDB" opacity=""></line>
</g>
	<path d="M24.149 10.71h1.131v3.221l6.72-5.76-6.72-5.76v3.819h-1.131c-5.909 0-9.242 4.379-12.182 8.243-2.645 3.475-4.928 6.477-8.618 6.477h-3.349v4.482h3.349c5.91 0 9.242-4.381 12.184-8.245 2.643-3.477 4.926-6.477 8.616-6.477zM8.658 13.533c0.251-0.326 0.506-0.659 0.763-0.997 0.626-0.822 1.286-1.69 2.002-2.554-2.114-1.974-4.664-3.432-8.074-3.432h-3.349v4.48h3.349c2.123 0 3.781 0.997 5.309 2.502zM25.28 21.269h-1.131c-2.251 0-3.978-1.118-5.584-2.781-0.162 0.21-0.322 0.422-0.485 0.637-0.706 0.925-1.466 1.922-2.302 2.906 2.171 2.118 4.802 3.718 8.371 3.718h1.131v3.84l6.72-5.76-6.72-5.763v3.203z" fill="#000000"></path>
</svg>
