<svg id="svg-source" width="32" height="32" version="1.1" viewBox="0 0 32 32"
  xmlns="http://www.w3.org/2000/svg" style="position:relative;"
  xmlns:xlink="http://www.w3.org/1999/xlink">
  <g id="danger-death-delete-destroy-sull" data-iconmelon="Streamline Icon Set:00803a9f6246b93823416f2d5dc88622">
    <g id="Expanded">
      <g>
        <g>
          <path  d="M22.261,32c-0.385,0-0.695-0.312-0.695-0.695v-7.652h0.695c3.452,0,6.261-2.809,6.261-6.262v-3.478
				c0-6.904-5.617-12.522-12.521-12.522S3.478,7.009,3.478,13.913v3.478c0,3.453,2.809,6.262,6.261,6.262h0.695v7.652
				c0,0.384-0.3 11,0.695-0.695,0.695s-0.696-0.312-0.696-0.695v-6.292c-3.895-0.354-6.957-3.637-6.957-7.622v-3.478
				C2.087,6.242,8.329,0,16,0c7.671,0,13.913,6.242,13.913,13.913v3.478c0,3.985-3.062,7.269-6.957,7.622v6.292
				C22.956,31.688,22.646,32,22.261,32z" fill="#000066"></path>
        </g>
        <g>
          <path  d="M13.913,32c-0.385,0-0.696-0.312-0.696-0.695v-6.957c0-0.385,0.311-0.695,0.696-0.695
				s0.696,0.311,0.696,0.695v6.957C14.609,31.688,14.298,32,13.913,32z" fill="#ffaa00"></path>
        </g>
        <g>
          <path  d="M18.087,32c-0.385,0-0.695-0.312-0.695-0.695v-6.957c0-0.385,0.311-0.695,0.695-0.695
				s0.695,0.311,0.695,0.695v6.957C18.782,31.688,18.472,32,18.087,32z" fill="#ffaa00"></path>
        </g>
        <g>
          <path  d="M22.261,22.261c-2.685,0-4.869-2.185-4.869-4.87c0-2.684,2.185-4.869,4.869-4.869s4.87,2.185,4.87,4.869
				C27.131,20.076,24.945,22.261,22.261,22.261z M22.261,13.913c-1.918,0-3.479,1.561-3.479,3.478c0,1.919,1.561,3.479,3.479,3.479
				s3.479-1.56,3.479-3.479C25.739,15.474,24.179,13.913,22.261,13.913z" fill="#ff0000"></path>
        </g>
        <g>
          <path  d="M9.739,22.261c-2.685,0-4.87-2.185-4.87-4.87c0-2.684,2.185-4.869,4.87-4.869
				c2.684,0,4.87,2.185,4.87,4.869C14.609,20.076,12.423,22.261,9.739,22.261z M9.739,13.913c-1.918,0-3.479,1.561-3.479,3.478
				c0,1.919,1.561,3.479,3.479,3.479c1.917,0,3.478-1.56,3.478-3.479C13.217,15.474,11.657,13.913,9.739,13.913z" fill="#ff0000"></path>
        </g>
        <g>
          <path  d="M2.947,12.522c-0.385,0-0.696-0.311-0.696-0.696s0.311-0.696,0.696-0.696c1.892,0,4.706-1.297,4.706-4.87
				c0-0.385,0.311-0.695,0.695-0.695c0.385,0,0.696,0.311,0.696,0.695C9.043,10.371,5.977,12.522,2.947,12.522z" fill="#ffffff"></path>
        </g>
        <g>
          <path  d="M29.053,12.522c-3.029,0-6.097-2.151-6.097-6.261c0-0.385,0.312-0.695,0.696-0.695
				s0.695,0.311,0.695,0.695c0,3.573,2.814,4.87,4.705,4.87c0.385,0,0.696,0.311,0.696,0.696S29.438,12.522,29.053,12.522z" fill="#ffffff"></path>
        </g>
        <g>
          <path  d="M16.709,22.261c-0.003,0.001-0.008,0.001-0.014,0h-1.391c-0.241,0-0.464-0.125-0.592-0.33
				s-0.138-0.462-0.031-0.678l0.696-1.391c0.236-0.472,1.008-0.472,1.245,0l0.641,1.28c0.089,0.117,0.143,0.264,0.143,0.422
				C17.405,21.95,17.094,22.261,16.709,22.261z" fill="#ffffff"></path>
        </g>
      </g>
    </g>
  </g>
</svg>