<?xml version="1.0" encoding="utf-8"?>
<!-- Generated by IcoMoon.io -->
<!DOCTYPE svg PUBLIC "-//W3C//DTD SVG 1.1//EN" "http://www.w3.org/Graphics/SVG/1.1/DTD/svg11.dtd">
<svg version="1.1" xmlns="http://www.w3.org/2000/svg" xmlns:xlink="http://www.w3.org/1999/xlink" width="32" height="32" viewBox="0 0 32 32">
<g id="icomoon-ignore">
	<line stroke-width="1" x1="" y1="" x2="" y2="" stroke="#449FDB" opacity=""></line>
</g>
	<path d="M10 4v10.869c-2.528-0.702-3.143-1.056-5.813-1.056-2.309 0-4.188 1.879-4.188 4.188s1.879 4.188 4.188 4.188c3.249 0 4.748 1.21 6.428 3.597 0.050 0.071 0.099 0.143 0.147 0.216h-2.763v6h20v-6h-1.781c0.134-1.989 0.694-2.535 1.378-3.201 0.528-0.514 1.185-1.154 1.665-2.313 0.504-1.217 0.739-2.801 0.739-4.985v-2.031c0-1.936-1.602-3.51-3.571-3.51-0.327 0-0.652 0.044-0.966 0.131-0.656-0.616-1.531-0.968-2.463-0.968-0.327 0-0.652 0.044-0.966 0.131-0.656-0.616-1.531-0.968-2.463-0.968-0.564 0-1.097 0.129-1.571 0.359v-4.645c0-2.209-1.791-4-4-4s-4 1.791-4 4zM26 29c0 0.552-0.448 1-1 1s-1-0.448-1-1 0.448-1 1-1 1 0.448 1 1zM16 4.188v8h2v-0.204c0-0.833 0.705-1.51 1.571-1.51 0.543 0 1.040 0.265 1.331 0.708l0.508 0.775 0.811-0.447c0.236-0.13 0.506-0.199 0.779-0.199 0.543 0 1.040 0.265 1.331 0.708l0.508 0.775 0.811-0.447c0.236-0.13 0.506-0.199 0.779-0.199 0.866 0 1.571 0.678 1.571 1.51v2.031c0 3.955-1.194 4.753-2.061 5.597-0.885 0.862-1.875 1.828-2.085 4.715h-10.449c-0.258-0.492-0.54-0.959-0.847-1.396-2.121-3.012-4.361-4.604-8.371-4.604-0.999 0-1.813-0.938-1.813-1.938s0.813-1.875 1.813-1.875c2.677 0 3.294 0.388 5.813 1.155 0.711 0.191 1.415 0.373 1.979 0.496l0.021-13.651c0-1.103 0.897-2 2-2s2 0.897 2 2z" fill="#000000"></path>
</svg>
